<svg xmlns="http://www.w3.org/2000/svg" viewBox="0 0 24 24" width="24" height="24">
  <g fill="none" stroke="currentColor" stroke-width="2" stroke-linecap="round" stroke-linejoin="round">
    <!-- origin map pin (lower left) -->
    <path d="M6 19 C6 19 8.5 16.4 8.5 14.2 A2.5 2.5 0 0 0 3.5 14.2 C3.5 16.4 6 19 6 19 Z"/>
    <!-- destination map pin (upper right) -->
    <path d="M18.5 11.5 C18.5 11.5 21 8.9 21 6.7 A2.5 2.5 0 0 0 16 6.7 C16 8.9 18.5 11.5 18.5 11.5 Z"/>
    <!-- connector line between the two known points -->
    <path d="M7.6 12.5 L17 7.6"/>
    <!-- bearing cue at origin: N-tick (up) + angle arc swung toward the line -->
    <path d="M6 12.2 V8.6"/>
    <path d="M6 9 A3.4 3.4 0 0 1 9 10.7"/>
  </g>
</svg>
