<svg xmlns="http://www.w3.org/2000/svg" viewBox="0 0 320 160" fill="none" font-family="IBM Plex Sans, sans-serif">
  <!-- Link Budget: Tx power -> path loss over distance -> Rx level vs sensitivity; lime = the fade margin (the answer). -->

  <!-- Tx antenna (left) — schematic aerial symbol (mast + base + 3 splayed rays) -->
  <g stroke="#E5E5E5" stroke-width="1.75" stroke-linecap="round" stroke-linejoin="round" fill="none">
    <line x1="34" y1="58" x2="34" y2="104"/>
    <line x1="24" y1="104" x2="44" y2="104"/>
    <path d="M34 58 L26 50 M34 58 V46 M34 58 L42 50"/>
  </g>
  <!-- Rx antenna (right) — schematic aerial symbol -->
  <g stroke="#E5E5E5" stroke-width="1.75" stroke-linecap="round" stroke-linejoin="round" fill="none">
    <line x1="286" y1="58" x2="286" y2="104"/>
    <line x1="276" y1="104" x2="296" y2="104"/>
    <path d="M286 58 L278 50 M286 58 V46 M286 58 L294 50"/>
  </g>

  <!-- Signal-level line: starts high at Tx, slopes down across the path (path loss) -->
  <path d="M34 50 L286 96" stroke="#E5E5E5" stroke-width="2" stroke-linecap="round" fill="none"/>
  <text x="150" y="60" fill="#9C9C9C" font-size="12" font-weight="500" text-anchor="middle">&#8722; path loss</text>

  <!-- Rx sensitivity floor (dashed neutral) -->
  <line x1="200" y1="118" x2="298" y2="118" stroke="#9C9C9C" stroke-width="1.25" stroke-dasharray="4 4"/>
  <text x="249" y="132" fill="#9C9C9C" font-size="11" font-weight="500" text-anchor="middle">Rx sensitivity</text>

  <!-- Fade margin: lime gap between received level (96) and sensitivity floor (118) at Rx -->
  <g stroke="#A2CC3A" stroke-width="1.5" stroke-linecap="round">
    <line x1="286" y1="96" x2="286" y2="118"/>
    <path d="M283 100 L286 96 L289 100 M283 114 L286 118 L289 114"/>
  </g>
  <text x="278" y="110" fill="#A2CC3A" font-size="12" font-weight="500" text-anchor="end">margin</text>

  <!-- Received level dot (lime) -->
  <circle cx="286" cy="96" r="2.5" fill="#A2CC3A"/>

  <!-- Title / relationship -->
  <text x="160" y="22" fill="#E5E5E5" font-size="13" font-weight="500" text-anchor="middle" font-family="DM Mono, monospace">Rx = Tx + gains &#8722; losses</text>
  <!-- Footer -->
  <text x="160" y="152" fill="#9C9C9C" font-size="12" font-weight="500" text-anchor="middle">fade margin = Rx level &#8722; sensitivity</text>
</svg>
